<svg  viewBox="0 0 117 117" fill="none" xmlns="http://www.w3.org/2000/svg">
<path d="M79.3877 10.8145C80.9068 11.7926 82.4464 12.7589 83.9901 13.7278C97.6053 22.2736 111.544 31.0226 114.651 49.8308C118.367 72.3256 109.477 96.8151 95.9669 110.378C90.5128 115.854 84.2833 116.188 77.3154 114.827C74.4272 114.262 71.4861 113.421 68.4497 112.553C67.7867 112.363 67.1191 112.172 66.4465 111.982C62.735 110.936 58.9008 109.939 55.0812 109.541C51.1482 109.132 47.1124 109.364 43.1935 109.681C42.4342 109.743 41.6806 109.807 40.9327 109.871C37.7765 110.141 34.7199 110.403 31.7495 110.394C24.5023 110.373 18.1508 108.744 13.3085 101.74C1.74708 85.0173 -1.72094 58.208 4.66842 36.6867C10.5611 16.8385 26.8721 8.67917 42.4762 3.26488C54.9644 -1.06822 67.273 3.01453 79.3877 10.8145Z" stroke="#64FFDA" stroke-width="3"/>
<path d="M41.76 88.12H79.584V30.616L57.984 76.888L36.384 30.52V91L33.504 90.904V23.704H36.384L57.984 70.072L79.584 23.8L82.464 23.704V91L41.76 90.904V88.12Z" fill="#64FFDA"/>
</svg>
