<svg width="18398" height="209" fill="none" xmlns="http://www.w3.org/2000/svg"><path d="M16003.7 127.203h109.3V.0239258h-1280V166.178h81v-65.641h114.2v65.641h189.7v-13.539h67.1V55.4085h75.5v71.7945h143v38.975h80.5v-38.975h175.3v80.821h77.5v-27.898h45.2v-52.923h72.6V94.3829h49.1v32.8201z" fill="#252E3A"/><path d="M14764.5 127.203h92.5V.0239258h-1083V166.178h68.5v-65.641h96.7v65.641h160.5v-13.539h56.7V55.4085h63.9v71.7945h121v38.975h68.1v-38.975h148.4v80.821h65.5v-27.898h38.3v-52.923h61.3V94.3829h41.6v32.8201z" fill="#252E3A"/><path d="M15836.2 81.4905h107V44.4961h169.8V.0241394h-1280V106.678h234.1v87.37h123.7V81.4905h127.1v35.0265h159V71.6516h125.2v96.4214h108.9V53.5479h125.2v27.9426z" fill="#2A3342"/><path d="M14777.2 81.4666h107V44.4722h169.8V.00021362h-1280V106.654h234.1v87.37h123.7V81.4666h127.1v35.0264h159V71.6276h125.2v96.4214h108.9V53.524h125.2v27.9426z" fill="#2A3342"/><path d="M18288.7 127.203h109.3V.0239258h-1280V166.178h81v-65.641h114.2v65.641h189.7v-13.539h67.1V55.4085h75.5v71.7945h143v38.975h80.5v-38.975h175.3v80.821h77.5v-27.898h45.2v-52.923h72.6V94.3829h49.1v32.8201z" fill="#252E3A"/><path d="M17049.5 127.203h92.5V.0239258h-1083V166.178h68.5v-65.641h96.7v65.641h160.5v-13.539h56.7V55.4085h63.9v71.7945h121v38.975h68.1v-38.975h148.4v80.821h65.5v-27.898h38.3v-52.923h61.3V94.3829h41.6v32.8201z" fill="#252E3A"/><path d="M18121.2 81.4905h107V44.4961h169.8V.0241394h-1280V106.678h234.1v87.37h123.7V81.4905h127.1v35.0265h159V71.6516h125.2v96.4214h108.9V53.5479h125.2v27.9426z" fill="#2A3342"/><path d="M17062.2 81.4666h107V44.4722h169.8V.00021362h-1280V106.654h234.1v87.37h123.7V81.4666h127.1v35.0264h159V71.6276h125.2v96.4214h108.9V53.524h125.2v27.9426z" fill="#2A3342"/><path d="M11405.7 127.203h109.3V.0239258h-1280V166.178h81v-65.641h114.2v65.641h189.7v-13.539h67.1V55.4085h75.5v71.7945h143v38.975h80.5v-38.975h175.3v80.821h77.5v-27.898h45.2v-52.923h72.6V94.3829h49.1v32.8201z" fill="#252E3A"/><path d="M10166.5 127.203h92.5V.0239258H9176V166.178h68.5v-65.641h96.66v65.641h160.54v-13.539h56.73V55.4085h63.88v71.7945h121.04v38.975h68.08v-38.975h148.35v80.821h65.52v-27.898h38.3v-52.923h61.3V94.3829h41.6v32.8201z" fill="#252E3A"/><path d="M11238.2 81.4905h107V44.4961h169.8V.0241394h-1280V106.678h234.1v87.37h123.7V81.4905h127.1v35.0265h159V71.6516h125.2v96.4214h108.9V53.5479h125.2v27.9426z" fill="#2A3342"/><path d="M10179.2 81.4666h107V44.4722h169.8V.00021362H9176V106.654h234.11v87.37h123.68V81.4666h127.12v35.0264h159.02V71.6276h125.15v96.4214H10054V53.524h125.2v27.9426z" fill="#2A3342"/><path d="M13690.7 127.203h109.3V.0239258h-1280V166.178h81v-65.641h114.2v65.641h189.7v-13.539h67.1V55.4085h75.5v71.7945h143v38.975h80.5v-38.975h175.3v80.821h77.5v-27.898h45.2v-52.923h72.6V94.3829h49.1v32.8201z" fill="#252E3A"/><path d="M12451.5 127.203h92.5V.0239258h-1083V166.178h68.5v-65.641h96.7v65.641h160.5v-13.539h56.7V55.4085h63.9v71.7945h121v38.975h68.1v-38.975h148.4v80.821h65.5v-27.898h38.3v-52.923h61.3V94.3829h41.6v32.8201z" fill="#252E3A"/><path d="M13523.2 81.4905h107V44.4961h169.8V.0241394h-1280V106.678h234.1v87.37h123.7V81.4905h127.1v35.0265h159V71.6516h125.2v96.4214h108.9V53.5479h125.2v27.9426z" fill="#2A3342"/><path d="M12464.2 81.4666h107V44.4722h169.8V.00021362h-1280V106.654h234.1v87.37h123.7V81.4666h127.1v35.0264h159V71.6276h125.2v96.4214h108.9V53.524h125.2v27.9426z" fill="#2A3342"/><path d="M6827.73 127.203H6937V.0239258H5657V166.178h80.96v-65.641h114.24v65.641h189.74v-13.539H6109V55.4085h75.5v71.7945h143.05v38.975h80.46v-38.975h175.34v80.821h77.48v-27.898h45.2v-52.923h72.52V94.3829h49.18v32.8201z" fill="#252E3A"/><path d="M5588.54 127.203H5681V.0239258H4598V166.178h68.5v-65.641h96.66v65.641h160.54v-13.539h56.73V55.4085h63.88v71.7945h121.04v38.975h68.08v-38.975h148.35v80.821h65.56v-27.898h38.24v-52.923h61.36V94.3829h41.6v32.8201z" fill="#252E3A"/><path d="M6660.19 81.4905h106.99V44.4961H6937V.0241394H5657V106.678h234.11v87.37h123.68V81.4905h127.12v35.0265h159.02V71.6516h125.15v96.4214h108.96V53.5479h125.15v27.9426z" fill="#2A3342"/><path d="M5601.19 81.4666h106.99V44.4722H5878V.00021362H4598V106.654h234.11v87.37h123.68V81.4666h127.12v35.0264h159.02V71.6276h125.15v96.4214h108.96V53.524h125.15v27.9426z" fill="#2A3342"/><path d="M9112.73 127.203H9222V.0239258H7942V166.178h80.96v-65.641h114.24v65.641h189.74v-13.539H8394V55.4085h75.5v71.7945h143.05v38.975h80.46v-38.975h175.34v80.821h77.48v-27.898h45.2v-52.923h72.52V94.3829h49.18v32.8201z" fill="#252E3A"/><path d="M7873.54 127.203H7966V.0239258H6883V166.178h68.5v-65.641h96.66v65.641h160.54v-13.539h56.73V55.4085h63.88v71.7945h121.04v38.975h68.08v-38.975h148.35v80.821h65.56v-27.898h38.24v-52.923h61.36V94.3829h41.6v32.8201z" fill="#252E3A"/><path d="M8945.19 81.4905h106.99V44.4961H9222V.0241394H7942V106.678h234.11v87.37h123.68V81.4905h127.12v35.0265h159.02V71.6516h125.15v96.4214h108.96V53.5479h125.15v27.9426z" fill="#2A3342"/><path d="M7886.19 81.4666h106.99V44.4722H8163V.00021362H6883V106.654h234.11v87.37h123.68V81.4666h127.12v35.0264h159.02V71.6276h125.15v96.4214h108.96V53.524h125.15v27.9426z" fill="#2A3342"/><path d="M2229.73 127.203H2339V.0239258H1059V166.178h80.96v-65.641h114.24v65.641h189.74v-13.539H1511V55.4085h75.5v71.7945h143.05v38.975h80.46v-38.975h175.34v80.821h77.48v-27.898h45.2v-52.923h72.52V94.3829h49.18v32.8201z" fill="#252E3A"/><path d="M990.544 127.203H1083V.0239258H0V166.178h68.5018v-65.641h96.6592v65.641h160.537v-13.539h56.735V55.4085h63.879v71.7945h121.034v38.975h68.081v-38.975h148.351v80.821h65.56v-27.898h38.243v-52.923h61.357V94.3829h41.606v32.8201z" fill="#252E3A"/><path d="M2062.19 81.4905h106.99V44.4961H2339V.0241394H1059V106.678h234.11v87.37h123.68V81.4905h127.12v35.0265h159.02V71.6516h125.15v96.4214h108.96V53.5479h125.15v27.9426z" fill="#2A3342"/><path d="M1003.19 81.4666h106.99V44.4722H1280V.00021362H0V106.654h234.11v87.37h123.681V81.4666h127.117v35.0264h159.018V71.6276H769.08v96.4214h108.957V53.524h125.153v27.9426z" fill="#2A3342"/><path d="M4514.73 127.203H4624V.0239258H3344V166.178h80.96v-65.641h114.24v65.641h189.74v-13.539H3796V55.4085h75.5v71.7945h143.05v38.975h80.46v-38.975h175.34v80.821h77.48v-27.898h45.2v-52.923h72.52V94.3829h49.18v32.8201z" fill="#252E3A"/><path d="M3275.54 127.203H3368V.0239258H2285V166.178h68.5v-65.641h96.66v65.641h160.54v-13.539h56.73V55.4085h63.88v71.7945h121.04v38.975h68.08v-38.975h148.35v80.821h65.56v-27.898h38.24v-52.923h61.36V94.3829h41.6v32.8201z" fill="#252E3A"/><path d="M4347.19 81.4905h106.99V44.4961H4624V.0241394H3344V106.678h234.11v87.37h123.68V81.4905h127.12v35.0265h159.02V71.6516h125.15v96.4214h108.96V53.5479h125.15v27.9426z" fill="#2A3342"/><path d="M3288.19 81.4666h106.99V44.4722H3565V.00021362H2285V106.654h234.11v87.37h123.68V81.4666h127.12v35.0264h159.02V71.6276h125.15v96.4214h108.96V53.524h125.15v27.9426z" fill="#2A3342"/></svg>